<svg id="visual" viewBox="0 0 1200 200" width="1200" height="200" xmlns="http://www.w3.org/2000/svg" xmlns:xlink="http://www.w3.org/1999/xlink" version="1.1"><path d="M0 37L109 37L109 27L218 27L218 27L327 27L327 41L436 41L436 31L545 31L545 27L655 27L655 25L764 25L764 23L873 23L873 19L982 19L982 41L1091 41L1091 25L1200 25L1200 31L1200 0L1200 0L1091 0L1091 0L982 0L982 0L873 0L873 0L764 0L764 0L655 0L655 0L545 0L545 0L436 0L436 0L327 0L327 0L218 0L218 0L109 0L109 0L0 0Z" fill="#69fa83"></path><path d="M0 125L109 125L109 65L218 65L218 65L327 65L327 85L436 85L436 79L545 79L545 87L655 87L655 67L764 67L764 97L873 97L873 109L982 109L982 77L1091 77L1091 89L1200 89L1200 73L1200 29L1200 23L1091 23L1091 39L982 39L982 17L873 17L873 21L764 21L764 23L655 23L655 25L545 25L545 29L436 29L436 39L327 39L327 25L218 25L218 25L109 25L109 35L0 35Z" fill="#52d065"></path><path d="M0 153L109 153L109 127L218 127L218 135L327 135L327 151L436 151L436 139L545 139L545 133L655 133L655 137L764 137L764 137L873 137L873 155L982 155L982 123L1091 123L1091 131L1200 131L1200 149L1200 71L1200 87L1091 87L1091 75L982 75L982 107L873 107L873 95L764 95L764 65L655 65L655 85L545 85L545 77L436 77L436 83L327 83L327 63L218 63L218 63L109 63L109 123L0 123Z" fill="#3ba848"></path><path d="M0 167L109 167L109 151L218 151L218 155L327 155L327 177L436 177L436 153L545 153L545 153L655 153L655 151L764 151L764 151L873 151L873 175L982 175L982 155L1091 155L1091 163L1200 163L1200 161L1200 147L1200 129L1091 129L1091 121L982 121L982 153L873 153L873 135L764 135L764 135L655 135L655 131L545 131L545 137L436 137L436 149L327 149L327 133L218 133L218 125L109 125L109 151L0 151Z" fill="#23822d"></path><path d="M0 201L109 201L109 201L218 201L218 201L327 201L327 201L436 201L436 201L545 201L545 201L655 201L655 201L764 201L764 201L873 201L873 201L982 201L982 201L1091 201L1091 201L1200 201L1200 201L1200 159L1200 161L1091 161L1091 153L982 153L982 173L873 173L873 149L764 149L764 149L655 149L655 151L545 151L545 151L436 151L436 175L327 175L327 153L218 153L218 149L109 149L109 165L0 165Z" fill="#065d13"></path></svg>